<svg xmlns="http://www.w3.org/2000/svg" viewBox="0 0 32 32" width="32" height="32" fill="none">
  <mask id="a" style="mask-type:alpha" maskUnits="userSpaceOnUse" x="0" y="6" width="32" height="20">
    <path d="M7.83 26C3.505 26 0 22.568 0 18.333c0-4.14 3.353-7.515 7.546-7.661C9.275 7.872 12.414 6 16 6c4.63 0 8.517 3.122 9.583 7.334 3.549.026 6.417 2.852 6.417 6.333C32 23.053 29 26 25.872 25.991L7.83 26z" fill="#C4C4C4"/>
  </mask>
  <g mask="url(#a)">
    <path d="M7.83 26c-2.452 0-4.64-1.104-6.076-2.831L18.043 16.333 30.71 23.465C29.593 24.921 27.907 26 26 25.991 23.125 26 12.063 26 7.83 26z" fill="url(#b)"/>
    <path d="M25.579 13.315 18.043 16.333 30.71 23.465c.81-1.058 1.29-2.374 1.29-3.798 0-3.481-2.868-6.307-6.417-6.333l-.004-.019z" fill="url(#c)"/>
    <path d="M7.065 10.703 18.042 16.333l7.536-3.018C24.505 9.113 20.624 6 16 6c-3.586 0-6.725 1.872-8.454 4.672a7.36 7.36 0 0 0-.481.031z" fill="url(#d)"/>
    <path d="M1.754 23.169 18.042 16.333 7.065 10.703C3.1 11.079 0 14.352 0 18.333c0 1.834.657 3.517 1.754 4.836z" fill="url(#e)"/>
  </g>
  <defs>
    <linearGradient id="b" x1="4.426" y1="24.667" x2="27.231" y2="23.276" gradientUnits="userSpaceOnUse">
      <stop stop-color="#2086B8"/><stop offset="1" stop-color="#46D3F6"/>
    </linearGradient>
    <linearGradient id="c" x1="23.83" y1="19.667" x2="30.211" y2="15.208" gradientUnits="userSpaceOnUse">
      <stop stop-color="#1694DB"/><stop offset="1" stop-color="#62C3FE"/>
    </linearGradient>
    <linearGradient id="d" x1="8.51" y1="7.333" x2="23.334" y2="15.935" gradientUnits="userSpaceOnUse">
      <stop stop-color="#0D3D78"/><stop offset="1" stop-color="#063B83"/>
    </linearGradient>
    <linearGradient id="e" x1="-.34" y1="20" x2="14.563" y2="14.465" gradientUnits="userSpaceOnUse">
      <stop stop-color="#16589B"/><stop offset="1" stop-color="#1464B7"/>
    </linearGradient>
  </defs>
</svg>
